<?xml version="1.0" encoding="UTF-8"?>
<svg width="119" height="28" version="1.1" viewBox="0 0 119 28" xmlns="http://www.w3.org/2000/svg">
<title>Gojek logo (2019</title>
 <g>
  <path d="m8.77 14c0-2.89 2.35-5.23 5.25-5.23 2.9 0 5.25 2.34 5.25 5.23 0 2.89-2.35 5.23-5.25 5.23-2.9 0-5.25-2.34-5.25-5.23" fill="#00AA13"/>
  <path d="m14 0.062c-7.73 0-14 6.24-14 13.9 0 5.78 3.5 10.7 8.59 12.9a2.62 2.62 0 0 0 3.59-1.9 2.61 2.61 0 0 0-1.56-2.93v-1e-3c-3.15-1.32-5.37-4.42-5.37-8.04 0-4.82 3.92-8.72 8.75-8.72s8.75 3.9 8.75 8.72c0 3.62-2.22 6.72-5.37 8.04v2e-3a2.61 2.61 0 0 0 1.01 5.03 2.72 2.72 0 0 0 1.01-0.203c5.09-2.15 8.6-7.08 8.6-12.9 0-7.7-6.27-13.9-14-13.9" fill="#00AA13"/>
  <path d="m68.6 12.5c0-2.52-1.74-4.4-4.44-4.4-2.71 0-4.45 1.88-4.45 4.4 0 2.52 1.74 4.4 4.45 4.4 2.71 0 4.44-1.88 4.44-4.4m-13.2 0c0-4.63 3.68-8.21 8.8-8.21 5.15 0 8.8 3.58 8.8 8.21s-3.65 8.21-8.8 8.21c-5.12 0-8.8-3.58-8.8-8.21m16.1 11.6h2.36c1.27 0 1.71-0.47 1.71-1.58v-18.2h4.36v18.2c0 3.84-1.56 5.48-5.71 5.48h-2.71v-3.96zm-23.1-10.7c0 1.92-1.96 3.45-4.44 3.45-2.81 0-4.56-1.65-4.56-4.4 0-2.54 1.87-4.28 4.74-4.28 2.28 0 4.27 1.59 4.27 3.39v1.83zm0.178-9.07v1.83h-0.06c-1.13-1.18-2.99-1.83-5.21-1.83-4.77 0-8.3 3.54-8.3 8.12 0 4.75 3.62 8.24 8.44 8.24 2.16 0 3.97-0.68 5.07-1.89h0.06v1.58c0 2.12-1.84 3.69-4.27 3.69-2.45 0-3.88-0.688-5.11-1.87l-2.84 2.72c1.9 2.01 4.77 3.15 8.04 3.15 4.98 0 8.38-3.33 8.38-7.75v-16h-4.21zm42.5 3.52c2.32 0 3.94 1.2 4.15 3.02h-8.36c0.236-1.82 1.86-3.02 4.21-3.02m0.45 9.39c-2.61 0-4.66-1.68-4.72-3.31h12.7v-1.23c0-4.66-3.24-8.36-8.48-8.36-4.95 0-8.48 3.46-8.48 8.24 0 4.93 3.73 8.18 9.2 8.18 3.36 0 5.76-1.6 7.02-3.14l-2.95-2.06c-1.31 1.22-2.5 1.68-4.25 1.68m10.5-17.1h4.21l0.023 10.8h0.057l7.04-6.58h5.64l-7.3 6.88 7.27 9.57h-5.03l-4.99-6.92h-0.057l-2.65 2.5v4.43h-4.21z"/>
 </g>
</svg>
