<?xml version="1.0" encoding="UTF-8"?>
<svg width="400" height="87" version="1.1" viewBox="0 0 400 87" xmlns="http://www.w3.org/2000/svg">
<title>Tokopedia textlogo</title>
 <path d="m213.9 61c-4.347 4.417-9.548 6.637-15.57 6.637-4.874 0-9.016-0.9948-13.24-3.454v-10.13c3.401 2.309 7.673 4.508 11.89 4.508 8.792 0 14.02-6.058 14.02-14.64 0-8.592-5.412-14.83-14.21-14.83-3.928 0-7.112 1.414-9.599 4.248-2.666 3.07-4.044 7.458-4.044 13.26v39.98h-0.6624c-4.846 0-8.771-3.932-8.771-8.782v-32.7c0-13.88 8.472-25.08 23.03-25.08 7.19 0 13.03 2.462 17.46 7.407 4.163 4.621 6.226 10.48 6.226 17.52 0 6.27-2.177 11.63-6.527 16.05zm102.1-0.3387c-4.33 4.654-9.903 6.976-16.66 6.976-7.132 0-12.94-2.462-17.37-7.407-4.161-4.678-6.225-10.54-6.225-17.52 0-12.36 9.528-22.69 22.07-22.69 4.836 0 9.035 1.022 13.28 3.352v10.23c-3.401-2.309-7.672-4.508-11.89-4.508-8.792 0-14.03 6.057-14.03 14.65 0 8.471 5.539 14.83 14.21 14.83 3.925 0 7.157-1.473 9.742-4.439 2.569-2.948 3.904-7.279 3.904-13.1v-31.82c0-4.852 3.928-8.782 8.771-8.782h0.6624v42.1c0 7.414-2.143 13.48-6.468 18.14zm26.64-45.13c-0.99 1.11-2.409 1.621-4.141 1.621-3.238 0-5.556-2.391-5.556-5.609 0-3.293 2.274-5.516 5.556-5.516 3.158 0 5.556 2.344 5.556 5.516 0 1.569-0.4594 2.914-1.415 3.988zm47.93 25.5c0-3.724-1.407-6.671-4.233-8.905-2.546-2.01-5.726-3.032-9.596-3.032-8.539 0-14.02 6.683-14.02 14.92 0 7.931 5.811 14.55 13.93 14.55 5.648 0 8.668-3.303 11.89-7.418v11.86c-1.641 1.231-3.528 2.573-5.455 3.361-2.033 0.8498-4.461 1.263-7.265 1.263-13.58 0-22.53-11.26-22.53-24.27 0-6.682 2.073-12.21 6.246-16.51 4.428-4.565 10.24-6.829 17.35-6.829 13.48 0 23.13 7.751 23.13 21.76v24.93h-0.66c-4.848 0-8.776-3.932-8.776-8.783zm-129.1-2.675c-1.192-3.692-2.686-5.508-6.124-7.43-8.175-4.574-16.22-0.6799-19.96 7.394zm-7.198 29.14c-6.026 1.282-11.94 0.2936-17.71-2.935-5.628-3.146-9.396-7.825-11.28-14.01-3.819-12.5 4.004-26.44 16.59-29.81 6.237-1.672 12.22-0.9152 17.9 2.263 9.436 5.282 12.88 13.45 12.27 23.98l-38.01-0.07606c0.5603 4.293 3.218 7.652 6.955 9.741 3.788 2.119 7.271 2.626 10.5 1.622 3.589-1.128 6.499-4.06 8.866-6.789l7.746 5.65c-3.159 5.66-7.46 9.01-13.83 10.37zm79.55-46.54h9.433v45.75h-0.6636c-4.841 0-8.769-3.932-8.769-8.783zm-320 45.75c-9.227 0-13.81-6.284-13.81-15.06v-33.29c0-4.851 3.928-8.782 8.773-8.782h0.6624v11.39h15.94v9.072h-15.94v22.67c0 3.854 1.718 4.937 5.396 4.937h10.54v9.071zm54.79-5.782c-4.66 4.474-10.26 6.715-16.77 6.715-6.447 0-12.02-2.244-16.68-6.715-4.676-4.49-7.007-10.2-7.007-17.09 0-13.44 10.25-23.81 23.68-23.81 6.449 0 12.03 2.261 16.72 6.765 4.706 4.518 7.056 10.22 7.056 17.04 0 6.887-2.334 12.6-7.01 17.09zm44.11-28.96c-1.384 2.324-2.457 3.99-3.212 4.997-0.8322 1.095-1.654 1.969-2.468 2.574 6.556 2.12 8.998 6.668 8.998 13.44v13.73h-0.6624c-4.844 0-8.773-3.932-8.773-8.783v-4.011c0-4.387-1.965-7.363-6.607-7.363h-8.567v20.16h-0.6624c-4.844 0-8.769-3.932-8.769-8.783v-48.71c0-4.852 3.924-8.782 8.769-8.782h0.6624v36.96h2.788c3.064 0 5.077-1.049 6.233-3.034l7.924-13.39 10.75-0.0107zm48.7 28.96c-4.662 4.474-10.26 6.715-16.77 6.715-6.446 0-12.02-2.244-16.68-6.715-4.676-4.49-7.007-10.2-7.007-17.09 0-13.44 10.25-23.81 23.68-23.81 6.451 0 12.03 2.261 16.72 6.765 4.706 4.518 7.055 10.22 7.055 17.04 0 6.887-2.333 12.6-7.009 17.09zm-6.809-27.74c-2.601-2.723-5.902-4.09-9.962-4.09-8.681 0-13.88 6.337-13.88 14.74 0 8.283 5.32 14.74 13.88 14.74 8.561 0 13.88-6.453 13.88-14.74 0-4.398-1.32-7.927-3.917-10.65zm-92.8 0c-2.6-2.723-5.902-4.09-9.961-4.09-8.681 0-13.88 6.337-13.88 14.74 0 8.283 5.32 14.74 13.88 14.74 8.56 0 13.88-6.453 13.88-14.74 0-4.398-1.319-7.927-3.917-10.65z" style="fill-rule:evenodd;fill:#42b549;stroke-width:2.837"/>
</svg>
