<?xml version="1.0" encoding="UTF-8"?>
<!DOCTYPE svg PUBLIC "-//W3C//DTD SVG 1.1//EN" "http://www.w3.org/Graphics/SVG/1.1/DTD/svg11.dtd">
<!-- Creator: CorelDRAW 2019 (64-Bit) -->
<svg xmlns="http://www.w3.org/2000/svg" xml:space="preserve" width="9719px" height="2160px" version="1.1" style="shape-rendering:geometricPrecision; text-rendering:geometricPrecision; image-rendering:optimizeQuality; fill-rule:evenodd; clip-rule:evenodd"
viewBox="0 0 9719 2159.95"
 xmlns:xlink="http://www.w3.org/1999/xlink"
 xmlns:xodm="http://www.corel.com/coreldraw/odm/2003">
 <defs>
  <style type="text/css">
   <![CDATA[
    .fil2 {fill:#0A7FA7}
    .fil1 {fill:#189CC2}
    .fil3 {fill:#1BA0E1}
    .fil0 {fill:#434343;fill-rule:nonzero}
   ]]>
  </style>
 </defs>
 <g id="Layer_x0020_1">
  <metadata id="CorelCorpID_0Corel-Layer"/>
  <g id="_2150080273616">
   <path class="fil0" d="M287.73 2074.61c-84.28,-58.75 -151.94,-163.78 -151.94,-350.16l0 -493.72 -99.4 0 -36.39 0 0 -36.39 0 -116.66 0 -36.38 36.39 0 101.46 0 0 -256.3 0 -36.39 36.39 0 137.83 0 36.39 0 0 36.39 0 256.3 224.9 0 36.39 0 0 36.38 0 116.66 0 36.39 -36.39 0 -224.9 0 0 479.39c0,86.52 21.28,141.63 51.16,176.3 42.97,49.88 106.12,59.53 147,59.53 7.04,0 14.09,0 19.69,-0.37l0.14 0c6.27,-0.41 12.76,-1.21 19.67,-2.73l44.2 -9.78 0 45.17 0 124.86 0 30.76 -30.56 5.06c-7.94,1.32 -18.47,2.61 -30.95,3.46 -10.58,0.72 -22.27,1.19 -34.54,1.19 -64.64,0 -163.02,-10.74 -246.54,-68.96zm655.95 60.78l-139.89 0 -36.38 0 0 -36.39 0 -1029.5 0 -36.39 36.38 0 137.84 0 36.39 0 0 36.39 0 112.85c20.43,-28.06 43.58,-53.47 69.21,-75.33 61.19,-52.17 136.1,-84.14 221.53,-84.14 10.4,0 21.8,0.63 33.28,1.9 10.71,1.18 21.3,2.97 30.94,5.37l27.72 6.9 0 28.35 0 137.13 0 50.32 -47.77 -15.78c-0.44,-0.14 -5.19,-0.58 -12.19,-1.14 -8.37,-0.66 -18.46,-1.11 -27.87,-1.11 -89.82,0 -156.66,45.07 -203.31,110.91l-0.07 -0.05c-61.68,87.13 -89.42,209.99 -89.42,317.37l0 435.95 0 36.39 -36.39 0zm566.43 -70.85c-66,-56.77 -109.04,-137.66 -109.04,-241.84 0,-188.55 118.86,-287.92 264.87,-340 138.09,-49.26 299.77,-54.58 401.08,-54.58l25.27 0c-1.22,-78.4 -21.05,-131.93 -53.86,-166.15 -38.21,-39.85 -96.48,-55.8 -164.81,-55.8 -48.02,0 -95.9,8.27 -141.34,23.44 -47.2,15.77 -91.89,38.83 -131.54,67.7l-32.07 23.36 -20.38 -34.02 -63.77 -106.43 -15.85 -26.45 23.52 -19.89c44.85,-37.92 106.56,-69.52 175.38,-91.44 67.55,-21.52 142.14,-33.9 214.28,-33.9 134.98,0 240.66,38.26 313.31,112.47 72.02,73.55 109.86,180.62 109.86,318.94l0 659.05 0 36.39 -36.39 0 -133.73 0 -36.39 0 0 -36.39 0 -79.91c-24.13,27.14 -52.08,51.66 -83.31,72.32 -63.91,42.26 -141.44,68.54 -227.99,68.54 -101.54,0 -203.56,-32.15 -277.1,-95.41zm264.19 -422.95c-87.85,25.91 -158.5,75.04 -158.5,168.82 0,41.52 18.23,84.07 54.42,114.65 32.41,27.4 79.58,45.45 141.67,45.45 80.56,0 145.97,-38.64 193.07,-95.82 56.61,-68.76 87.38,-163.77 87.38,-252.58l0 -10.68 -23.27 0c-78.23,0 -197.47,1.46 -294.77,30.16zm1234.99 493.8l-152.25 0 -24.79 0 -9.04 -23.31 -399.13 -1029.5 -19.17 -49.47 53 0 150.19 0 25.04 0 8.93 23.59 285.97 755.24 0.15 0.43c1.32,3.66 2.63,7.42 3.93,11.26 1.31,-3.83 2.64,-7.6 3.96,-11.26l0.14 -0.43 285.97 -755.24 8.94 -23.59 25.03 0 148.14 0 52.9 0 -18.93 49.32 -395.01 1029.5 -8.99 23.46 -24.98 0zm641.95 -138.89c-102.36,-101.45 -163.99,-243.95 -163.99,-411.22 0,-173.07 58.15,-313.3 152.05,-412.35 100.74,-106.25 242.06,-164.39 396.61,-164.39 146.85,0 260.09,53.91 338.83,140.44 86.08,94.61 129.61,227.6 129.61,370.79 0,11.36 -0.57,24.03 -1.43,37.08 -0.65,9.93 -1.79,22.88 -2.97,35.79l-3.02 33.12 -33.08 0 -755.69 0c9.43,98.05 46.57,175.86 101.37,231.5 66.44,67.45 159.65,103.01 261.36,103.01 51.66,0 104.31,-10.68 153.73,-29.96 50.46,-19.69 97.51,-48.24 136.73,-83.46l32.78 -29.43 22.66 37.82 63.79 106.43 15.28 25.5 -21.97 19.98c-51.47,46.86 -116.97,84.98 -187.54,111.4 -71.01,26.59 -147.26,41.4 -219.57,41.4 -165.51,0 -311.37,-60.2 -415.54,-163.45zm168.05 -722.35c-45.39,40.71 -80.23,97.16 -98.81,168.3l566.35 0c-8.83,-73.9 -34.79,-130.7 -71.85,-170.92 -46.67,-50.64 -112.02,-75.59 -183.18,-75.59 -80.47,0 -155.23,26.83 -212.51,78.21zm978.81 821.16c-57.79,-40.94 -103.19,-113.19 -103.19,-239.87l0 -1195.29 0 -36.39 36.39 0 139.91 0 36.39 0 0 36.39 0 1164.59c0,56.23 11.36,86.74 27.49,102.42 13.96,13.57 34.34,16.74 53.38,16.74 4.8,0 10.8,-0.01 13.36,-0.12 4.33,-0.19 9.05,-0.58 13.74,-1.36l42.21 -7 0 42.82 0 124.86 0 30.78 -30.56 5.04c-6.54,1.08 -14.44,2.19 -24.41,3.09 -10.39,0.94 -21.46,1.56 -32.85,1.56 -47.31,0 -114.65,-7.74 -171.86,-48.26zm500.79 -103.74c-103.9,-103.75 -167.81,-248.02 -167.81,-412.44 0,-161.56 64,-303.35 168.02,-405.27 105.35,-103.23 251.54,-165.32 413.57,-165.32 162.14,0 308.93,62.15 414.76,165.45 104.44,101.96 168.9,243.69 168.9,405.14 0,164.31 -64.31,308.46 -168.55,412.16 -105.89,105.35 -252.81,168.66 -415.11,168.66 -162.2,0 -308.46,-63.21 -413.78,-168.38zm154.17 -677.59c-65.09,66.41 -105.19,159.2 -105.19,265.15 0,109.67 39.89,204.31 104.68,271.74 65.94,68.62 157.95,109.4 260.12,109.4 102.36,0 195,-40.89 261.43,-109.68 65.15,-67.46 105.42,-161.99 105.42,-271.46 0,-105.75 -40.49,-198.43 -105.94,-264.87 -66.44,-67.45 -158.85,-108.09 -260.91,-108.09 -101.87,0 -193.67,40.53 -259.61,107.81zm1208.05 821.41l-139.9 0 -36.39 0 0 -36.39 0 -1438.85 0 -36.39 36.39 0 139.9 0 36.39 0 0 36.39 0 765.93 112.62 0 297.66 -379.04 10.94 -13.93 17.64 0 168.71 0 75.78 0 -47.5 59.13 -344.64 429.07 383.23 557.08 39.21 57 -69.06 0 -168.69 0 -19.3 0 -10.83 -16.21 -332.75 -497.52 -113.02 0 0 477.34 0 36.39 -36.39 0zm850.33 -70.85c-66,-56.77 -109.03,-137.66 -109.03,-241.84 0,-188.55 118.85,-287.92 264.87,-340 138.09,-49.26 299.77,-54.58 401.07,-54.58l25.27 0c-1.21,-78.41 -21.04,-131.93 -53.84,-166.15 -38.22,-39.85 -96.49,-55.8 -164.82,-55.8 -48.02,0 -95.9,8.27 -141.33,23.44 -47.21,15.77 -91.9,38.83 -131.55,67.7l-32.07 23.36 -20.38 -34.02 -63.78 -106.43 -15.85 -26.44 23.52 -19.9c44.85,-37.92 106.57,-69.52 175.38,-91.44 67.56,-21.52 142.14,-33.9 214.29,-33.9 134.97,0 240.65,38.26 313.31,112.47 72.02,73.55 109.86,180.62 109.86,318.94l0 659.05 0 36.39 -36.39 0 -133.73 0 -36.39 0 0 -36.39 0 -79.92c-24.13,27.15 -52.08,51.67 -83.31,72.33 -63.9,42.26 -141.44,68.54 -227.99,68.54 -101.54,0 -203.57,-32.15 -277.11,-95.41zm264.2 -422.95c-87.84,25.91 -158.49,75.04 -158.49,168.82 0,41.52 18.22,84.08 54.41,114.66 32.41,27.39 79.58,45.44 141.68,45.44 80.55,0 145.97,-38.63 193.06,-95.83 56.61,-68.75 87.38,-163.77 87.38,-252.57l0 -10.68 -23.27 0c-78.23,0 -197.47,1.46 -294.77,30.16z"/>
   <path class="fil1" d="M9111.98 1140.7c1.22,-0.75 2.43,-1.44 3.66,-2.21 -55.49,-165.82 175.26,-446.03 603.36,-914.66 -346.09,42.47 -613.78,130.32 -803.13,263.55 18.44,271.58 83.8,489.37 196.11,653.32z"/>
   <path class="fil2" d="M9111.98 1140.7c1.22,-0.75 2.43,-1.44 3.66,-2.21 -1.88,-5.6 -3.39,-11.35 -4.62,-17.22 -54.04,-205.35 -75.93,-442.6 -65.68,-711.74 -46.6,23.95 -89.76,49.9 -129.47,77.83 18.43,271.59 83.79,489.38 196.11,653.34z"/>
   <path class="fil3" d="M9254.43 1378.41c91.44,46.79 167.17,70.96 234.29,59.37 -451.02,-176.79 -638.23,-656.05 -561.64,-1437.78 -162.02,31.85 -293.53,105.96 -385.12,229.47 -79.78,107.58 -54.18,244.36 11.24,426.84 8.77,24.5 19.33,156.4 -35.31,205.4 -20.08,18 -52.33,3.76 -80.23,-14.44 -95.9,-54.47 -175.59,-53.94 -239.1,1.6 -175.02,-29.38 -301.79,-45.42 -380.31,-48.14 112.01,35.29 241.42,71.53 386.73,113.93 62.06,18.11 115.3,60.67 157.25,125.16 85.86,131.98 329.16,203.55 564.84,237.5 88.44,12.74 210.71,41.4 327.36,101.09z"/>
  </g>
 </g>
</svg>
